# xmcd
#
# Track frame offsets:
#	150
#	11355
#	34305
#	51200
#	72247
#
# Disc length: 1182 seconds
#
# Revision: 0
# Processed by: cddbd v1.5.2PL0 Copyright (c) Steve Scherf et al.
# Submitted via: audiograbber 1.83.01
#
DISCID=3b049c05
DTITLE=Tracie Klegg - Wide Open Spaces
DYEAR=2006
DGENRE=Country
TTITLE0=Some days you gotta Dance
TTITLE1=More Love
TTITLE2=Mr Heartache
TTITLE3=Traveling Soldier
TTITLE4=Wide Open Spaces
EXTD=
EXTT0=
EXTT1=
EXTT2=
EXTT3=
EXTT4=
PLAYORDER=
